<?xml version="1.0" standalone="yes"?>

<svg version="1.1" viewBox="0.0 0.0 494.3070866141732 355.56955380577426" fill="none" stroke="none" stroke-linecap="square" stroke-miterlimit="10" xmlns="http://www.w3.org/2000/svg" xmlns:xlink="http://www.w3.org/1999/xlink"><clipPath id="p.0"><path d="m0 0l494.3071 0l0 355.56955l-494.3071 0l0 -355.56955z" clip-rule="nonzero"></path></clipPath><g clip-path="url(#p.0)"><path fill="#000000" fill-opacity="0.0" d="m0 0l494.3071 0l0 355.56955l-494.3071 0z" fill-rule="nonzero"></path><path fill="#d9d2e9" d="m23.863518 236.31804l0 0c0 -12.5448 10.169567 -22.71437 22.714363 -22.71437l359.2327 0c6.024231 0 11.801697 2.3931274 16.061462 6.652893c4.2597656 4.2597656 6.652893 10.037247 6.652893 16.061478l0 90.85472c0 12.5448 -10.169556 22.714386 -22.714355 22.714386l-359.2327 0l0 0c-12.544796 0 -22.714363 -10.169586 -22.714363 -22.714386z" fill-rule="nonzero"></path><path stroke="#000000" stroke-width="1.0" stroke-linejoin="round" stroke-linecap="butt" d="m23.863518 236.31804l0 0c0 -12.5448 10.169567 -22.71437 22.714363 -22.71437l359.2327 0c6.024231 0 11.801697 2.3931274 16.061462 6.652893c4.2597656 4.2597656 6.652893 10.037247 6.652893 16.061478l0 90.85472c0 12.5448 -10.169556 22.714386 -22.714355 22.714386l-359.2327 0l0 0c-12.544796 0 -22.714363 -10.169586 -22.714363 -22.714386z" fill-rule="nonzero"></path><path fill="#cccccc" d="m10.133859 23.062992l53.259842 37.915684l0 80.35761l-53.259842 37.91568z" fill-rule="nonzero"></path><path stroke="#000000" stroke-width="2.0" stroke-linejoin="round" stroke-linecap="butt" d="m10.133859 23.062992l53.259842 37.915684l0 80.35761l-53.259842 37.91568z" fill-rule="nonzero"></path><path fill="#cfe2f3" d="m73.737526 73.45436l58.716255 0l0 58.716248l-58.716255 0z" fill-rule="nonzero"></path><path fill="#a5b4c2" d="m132.45378 73.45436l8.496338 -8.4963455l0 58.716248l-8.496338 8.4963455z" fill-rule="nonzero"></path><path fill="#d8e7f5" d="m73.737526 73.45436l8.496338 -8.4963455l58.716255 0l-8.496338 8.4963455z" fill-rule="nonzero"></path><path fill="#000000" fill-opacity="0.0" d="m73.737526 73.45436l8.496338 -8.4963455l58.716255 0l0 58.716248l-8.496338 8.4963455l-58.716255 0zm0 0l58.716255 0l8.496338 -8.4963455m-8.496338 8.4963455l0 58.716248" fill-rule="nonzero"></path><path stroke="#000000" stroke-width="2.0" stroke-linejoin="round" stroke-linecap="butt" d="m73.737526 73.45436l8.496338 -8.4963455l58.716255 0l0 58.716248l-8.496338 8.4963455l-58.716255 0zm0 0l58.716255 0l8.496338 -8.4963455m-8.496338 8.4963455l0 58.716248" fill-rule="nonzero"></path><path fill="#d9d2e9" d="m152.1483 15.895181l0 0c0 -4.618411 3.7439575 -8.362372 8.362366 -8.362372l33.448486 0l0 0c2.2178345 0 4.3448334 0.88103294 5.913086 2.4492817c1.5682526 1.5682497 2.4492798 3.6952515 2.4492798 5.9130907l0 150.77132c0 4.618408 -3.7439575 8.362366 -8.362366 8.362366l-33.448486 0c-4.618408 0 -8.362366 -3.7439575 -8.362366 -8.362366z" fill-rule="nonzero"></path><path stroke="#000000" stroke-width="2.0" stroke-linejoin="round" stroke-linecap="butt" d="m152.1483 15.895181l0 0c0 -4.618411 3.7439575 -8.362372 8.362366 -8.362372l33.448486 0l0 0c2.2178345 0 4.3448334 0.88103294 5.913086 2.4492817c1.5682526 1.5682497 2.4492798 3.6952515 2.4492798 5.9130907l0 150.77132c0 4.618408 -3.7439575 8.362366 -8.362366 8.362366l-33.448486 0c-4.618408 0 -8.362366 -3.7439575 -8.362366 -8.362366z" fill-rule="nonzero"></path><path fill="#b6d7a8" d="m212.47302 35.61686l43.885864 0l0 43.885857l-43.885864 0z" fill-rule="nonzero"></path><path fill="#91ab86" d="m256.3589 35.61686l6.3503723 -6.350361l0 43.88586l-6.3503723 6.350357z" fill-rule="nonzero"></path><path fill="#c4dfb9" d="m212.47302 35.61686l6.350357 -6.350361l43.88588 0l-6.3503723 6.350361z" fill-rule="nonzero"></path><path fill="#000000" fill-opacity="0.0" d="m212.47302 35.61686l6.350357 -6.350361l43.88588 0l0 43.88586l-6.3503723 6.350357l-43.885864 0zm0 0l43.885864 0l6.3503723 -6.350361m-6.3503723 6.350361l0 43.885857" fill-rule="nonzero"></path><path stroke="#000000" stroke-width="2.0" stroke-linejoin="round" stroke-linecap="butt" d="m212.47302 35.61686l6.350357 -6.350361l43.88588 0l0 43.88586l-6.3503723 6.350357l-43.885864 0zm0 0l43.885864 0l6.3503723 -6.350361m-6.3503723 6.350361l0 43.885857" fill-rule="nonzero"></path><path fill="#a4c2f4" d="m212.47302 109.413795l43.885864 0l0 43.885857l-43.885864 0z" fill-rule="nonzero"></path><path fill="#839bc3" d="m256.3589 109.413795l6.3503723 -6.350357l0 43.885857l-6.3503723 6.350357z" fill-rule="nonzero"></path><path fill="#b6cef6" d="m212.47302 109.413795l6.350357 -6.350357l43.88588 0l-6.3503723 6.350357z" fill-rule="nonzero"></path><path fill="#000000" fill-opacity="0.0" d="m212.47302 109.413795l6.350357 -6.350357l43.88588 0l0 43.885857l-6.3503723 6.350357l-43.885864 0zm0 0l43.885864 0l6.3503723 -6.350357m-6.3503723 6.350357l0 43.885857" fill-rule="nonzero"></path><path stroke="#000000" stroke-width="2.0" stroke-linejoin="round" stroke-linecap="butt" d="m212.47302 109.413795l6.350357 -6.350357l43.88588 0l0 43.885857l-6.3503723 6.350357l-43.885864 0zm0 0l43.885864 0l6.3503723 -6.350357m-6.3503723 6.350357l0 43.885857" fill-rule="nonzero"></path><path fill="#000000" fill-opacity="0.0" d="m280.24643 27.870691l0 125.73229" fill-rule="nonzero"></path><path stroke="#000000" stroke-width="8.0" stroke-linejoin="round" stroke-linecap="butt" d="m280.24643 27.870691l0 125.73229" fill-rule="nonzero"></path><path fill="#000000" fill-opacity="0.0" d="m303.9157 37.500603l0 106.48818" fill-rule="nonzero"></path><path stroke="#000000" stroke-width="8.0" stroke-linejoin="round" stroke-linecap="butt" d="m303.9157 37.500603l0 106.48818" fill-rule="nonzero"></path><path fill="#000000" fill-opacity="0.0" d="m327.7556 46.478374l0 88.50394" fill-rule="nonzero"></path><path stroke="#000000" stroke-width="8.0" stroke-linejoin="round" stroke-linecap="butt" d="m327.7556 46.478374l0 88.50394" fill-rule="nonzero"></path><path fill="#000000" fill-opacity="0.0" d="m392.34882 67.757256l-50.173218 0" fill-rule="nonzero"></path><path stroke="#000000" stroke-width="8.0" stroke-linejoin="round" stroke-linecap="butt" d="m392.34882 67.757256l-50.173218 0" fill-rule="nonzero"></path><path fill="#000000" fill-opacity="0.0" d="m392.34882 114.321205l-50.173218 0" fill-rule="nonzero"></path><path stroke="#000000" stroke-width="8.0" stroke-linejoin="round" stroke-linecap="butt" d="m392.34882 114.321205l-50.173218 0" fill-rule="nonzero"></path><path fill="#d9d9d9" d="m404.70865 66.16535l55.370087 0l0 50.23622l-55.370087 0z" fill-rule="nonzero"></path><path stroke="#000000" stroke-width="2.0" stroke-linejoin="round" stroke-linecap="butt" d="m404.70865 66.16535l55.370087 0l0 50.23622l-55.370087 0z" fill-rule="nonzero"></path><path fill="#000000" fill-opacity="0.0" d="m460.07874 91.28346c13.278168 0 26.631561 -17.648132 26.556335 -36.0244c-0.07525635 -18.376266 -13.579163 -37.48067 -27.120697 -36.0244c-13.541534 1.4562721 -27.120667 23.473217 -27.120667 46.946434" fill-rule="nonzero"></path><path stroke="#000000" stroke-width="4.0" stroke-linejoin="round" stroke-linecap="butt" d="m460.07874 91.28346c13.278168 0 26.631561 -17.648125 26.556305 -36.0244c-0.07525635 -18.376266 -13.579132 -37.48067 -27.120636 -36.0244c-6.770813 0.72813606 -13.550934 6.5964394 -18.638428 15.216862c-1.2718811 2.1551056 -2.4379578 4.4822197 -3.4716492 6.944027c-0.12918091 0.307724 -0.25634766 0.6175575 -0.38134766 0.9294205l-0.11291504 0.2849121" fill-rule="evenodd"></path><path fill="#000000" stroke="#000000" stroke-width="4.0" stroke-linecap="butt" d="m430.42117 41.366577l3.072937 19.071388l9.904846 -16.584774z" fill-rule="evenodd"></path><path fill="#000000" fill-opacity="0.0" d="m148.68767 172.98425l-101.98425 37.13385" fill-rule="nonzero"></path><path stroke="#000000" stroke-width="4.0" stroke-linejoin="round" stroke-linecap="butt" stroke-dasharray="16.0,12.0" d="m148.68767 172.98425l-101.98425 37.13385" fill-rule="nonzero"></path><path fill="#000000" fill-opacity="0.0" d="m390.67453 208.05511l-183.68503 -37.039368" fill-rule="nonzero"></path><path stroke="#000000" stroke-width="4.0" stroke-linejoin="round" stroke-linecap="butt" stroke-dasharray="16.0,12.0" d="m390.67453 208.05511l-183.68503 -37.039368" fill-rule="nonzero"></path><path fill="#000000" fill-opacity="0.0" d="m111.17595 263.56717l61.196854 0l0 36.283478l-61.196854 0z" fill-rule="nonzero"></path><path stroke="#000000" stroke-width="4.0" stroke-linejoin="round" stroke-linecap="butt" d="m111.17595 263.56717l61.196854 0l0 36.283478l-61.196854 0z" fill-rule="nonzero"></path><path fill="#000000" fill-opacity="0.0" d="m103.60465 244.02098l47.968513 0l0 72.220474l-47.968513 0z" fill-rule="nonzero"></path><path stroke="#000000" stroke-width="4.0" stroke-linejoin="round" stroke-linecap="butt" d="m103.60465 244.02098l47.968513 0l0 72.220474l-47.968513 0z" fill-rule="nonzero"></path><path fill="#f1c232" d="m117.989456 279.07605l9.010811 6.1035156E-5l2.7844315 -8.565704l2.784439 8.565704l9.0108185 -6.1035156E-5l-7.2899323 5.2938538l2.784546 8.565643l-7.289871 -5.293915l-7.2898636 5.293915l2.7845535 -8.565643z" fill-rule="nonzero"></path><path stroke="#000000" stroke-width="3.0" stroke-linejoin="round" stroke-linecap="butt" d="m117.989456 279.07605l9.010811 6.1035156E-5l2.7844315 -8.565704l2.784439 8.565704l9.0108185 -6.1035156E-5l-7.2899323 5.2938538l2.784546 8.565643l-7.289871 -5.293915l-7.2898636 5.293915l2.7845535 -8.565643z" fill-rule="nonzero"></path><path fill="#cccccc" d="m362.42422 282.0105l0 0c0 -15.333527 12.430267 -27.763779 27.763794 -27.763779l0 0c7.3634033 0 14.425232 2.9250946 19.631958 8.131821c5.206726 5.206726 8.131805 12.268555 8.131805 19.631958l0 0c0 15.333496 -12.430267 27.763763 -27.763763 27.763763l0 0c-15.333527 0 -27.763794 -12.430267 -27.763794 -27.763763z" fill-rule="nonzero"></path><path stroke="#000000" stroke-width="2.0" stroke-linejoin="round" stroke-linecap="butt" d="m362.42422 282.0105l0 0c0 -15.333527 12.430267 -27.763779 27.763794 -27.763779l0 0c7.3634033 0 14.425232 2.9250946 19.631958 8.131821c5.206726 5.206726 8.131805 12.268555 8.131805 19.631958l0 0c0 15.333496 -12.430267 27.763763 -27.763763 27.763763l0 0c-15.333527 0 -27.763794 -12.430267 -27.763794 -27.763763z" fill-rule="nonzero"></path><path fill="#000000" fill-opacity="0.0" d="m370.55606 262.37854l39.275574 39.275574" fill-rule="nonzero"></path><path stroke="#000000" stroke-width="3.0" stroke-linejoin="round" stroke-linecap="butt" d="m370.55606 262.37854l39.275574 39.275574" fill-rule="nonzero"></path><path fill="#000000" fill-opacity="0.0" d="m370.55606 301.64246l39.275574 -39.275604" fill-rule="nonzero"></path><path stroke="#000000" stroke-width="3.0" stroke-linejoin="round" stroke-linecap="butt" d="m370.55606 301.64246l39.275574 -39.275604" fill-rule="nonzero"></path><path fill="#000000" fill-opacity="0.0" d="m286.0859 240.53473l0 81.66586" fill-rule="nonzero"></path><path stroke="#000000" stroke-width="2.0" stroke-linejoin="round" stroke-linecap="butt" d="m286.0859 240.53473l0 81.66586" fill-rule="nonzero"></path><path fill="#000000" fill-opacity="0.0" d="m307.52295 241.81972l0 81.66585" fill-rule="nonzero"></path><path stroke="#000000" stroke-width="2.0" stroke-linejoin="round" stroke-linecap="butt" d="m307.52295 241.81972l0 81.66585" fill-rule="nonzero"></path><path fill="#000000" fill-opacity="0.0" d="m330.69473 241.81972l0 81.66585" fill-rule="nonzero"></path><path stroke="#000000" stroke-width="2.0" stroke-linejoin="round" stroke-linecap="butt" d="m330.69473 241.81972l0 81.66585" fill-rule="nonzero"></path><path fill="#000000" fill-opacity="0.0" d="m348.99838 260.34824l-81.66586 0" fill-rule="nonzero"></path><path stroke="#000000" stroke-width="2.0" stroke-linejoin="round" stroke-linecap="butt" d="m348.99838 260.34824l-81.66586 0" fill-rule="nonzero"></path><path fill="#000000" fill-opacity="0.0" d="m347.71338 281.78528l-81.66586 0" fill-rule="nonzero"></path><path stroke="#000000" stroke-width="2.0" stroke-linejoin="round" stroke-linecap="butt" d="m347.71338 281.78528l-81.66586 0" fill-rule="nonzero"></path><path fill="#000000" fill-opacity="0.0" d="m347.71338 304.95706l-81.66586 0" fill-rule="nonzero"></path><path stroke="#000000" stroke-width="2.0" stroke-linejoin="round" stroke-linecap="butt" d="m347.71338 304.95706l-81.66586 0" fill-rule="nonzero"></path><path fill="#666666" d="m292.6381 293.37115l0 0c0 -2.3009949 1.8653564 -4.166321 4.1663513 -4.166321l0 0c1.10495 0 2.1646729 0.43896484 2.9460144 1.2203064c0.78134155 0.78131104 1.2203064 1.8410339 1.2203064 2.9460144l0 0c0 2.3009949 -1.8653259 4.166321 -4.166321 4.166321l0 0c-2.3009949 0 -4.1663513 -1.8653259 -4.1663513 -4.166321z" fill-rule="nonzero"></path><path stroke="#666666" stroke-width="2.0" stroke-linejoin="round" stroke-linecap="butt" d="m292.6381 293.37115l0 0c0 -2.3009949 1.8653564 -4.166321 4.1663513 -4.166321l0 0c1.10495 0 2.1646729 0.43896484 2.9460144 1.2203064c0.78134155 0.78131104 1.2203064 1.8410339 1.2203064 2.9460144l0 0c0 2.3009949 -1.8653259 4.166321 -4.166321 4.166321l0 0c-2.3009949 0 -4.1663513 -1.8653259 -4.1663513 -4.166321z" fill-rule="nonzero"></path><path fill="#666666" d="m292.6381 271.06674l0 0c0 -2.3009949 1.8653564 -4.166321 4.1663513 -4.166321l0 0c1.10495 0 2.1646729 0.43896484 2.9460144 1.2203064c0.78134155 0.78134155 1.2203064 1.8410645 1.2203064 2.9460144l0 0c0 2.3009949 -1.8653259 4.166321 -4.166321 4.166321l0 0c-2.3009949 0 -4.1663513 -1.8653259 -4.1663513 -4.166321z" fill-rule="nonzero"></path><path stroke="#666666" stroke-width="2.0" stroke-linejoin="round" stroke-linecap="butt" d="m292.6381 271.06674l0 0c0 -2.3009949 1.8653564 -4.166321 4.1663513 -4.166321l0 0c1.10495 0 2.1646729 0.43896484 2.9460144 1.2203064c0.78134155 0.78134155 1.2203064 1.8410645 1.2203064 2.9460144l0 0c0 2.3009949 -1.8653259 4.166321 -4.166321 4.166321l0 0c-2.3009949 0 -4.1663513 -1.8653259 -4.1663513 -4.166321z" fill-rule="nonzero"></path><path fill="#666666" d="m314.94128 271.06552l0 0c0 -2.3009949 1.8653259 -4.166321 4.166321 -4.166321l0 0c1.1049805 0 2.1647034 0.43893433 2.946045 1.2202759c0.78131104 0.78134155 1.2202759 1.8410645 1.2202759 2.946045l0 0c0 2.3009949 -1.8653259 4.166321 -4.166321 4.166321l0 0c-2.3009949 0 -4.166321 -1.8653259 -4.166321 -4.166321z" fill-rule="nonzero"></path><path stroke="#666666" stroke-width="2.0" stroke-linejoin="round" stroke-linecap="butt" d="m314.94128 271.06552l0 0c0 -2.3009949 1.8653259 -4.166321 4.166321 -4.166321l0 0c1.1049805 0 2.1647034 0.43893433 2.946045 1.2202759c0.78131104 0.78134155 1.2202759 1.8410645 1.2202759 2.946045l0 0c0 2.3009949 -1.8653259 4.166321 -4.166321 4.166321l0 0c-2.3009949 0 -4.166321 -1.8653259 -4.166321 -4.166321z" fill-rule="nonzero"></path><path fill="#666666" d="m314.9425 293.37115l0 0c0 -2.3009949 1.8653259 -4.166321 4.166321 -4.166321l0 0c1.1049805 0 2.1647034 0.43896484 2.946045 1.2203064c0.78134155 0.78131104 1.2202759 1.8410339 1.2202759 2.9460144l0 0c0 2.3009949 -1.8653259 4.166321 -4.166321 4.166321l0 0c-2.3009949 0 -4.166321 -1.8653259 -4.166321 -4.166321z" fill-rule="nonzero"></path><path stroke="#666666" stroke-width="2.0" stroke-linejoin="round" stroke-linecap="butt" d="m314.9425 293.37115l0 0c0 -2.3009949 1.8653259 -4.166321 4.166321 -4.166321l0 0c1.1049805 0 2.1647034 0.43896484 2.946045 1.2203064c0.78134155 0.78131104 1.2202759 1.8410339 1.2202759 2.9460144l0 0c0 2.3009949 -1.8653259 4.166321 -4.166321 4.166321l0 0c-2.3009949 0 -4.166321 -1.8653259 -4.166321 -4.166321z" fill-rule="nonzero"></path><path fill="#666666" d="m292.63687 315.67557l0 0c0 -2.3009949 1.8653259 -4.166321 4.166321 -4.166321l0 0c1.1049805 0 2.1647034 0.43893433 2.946045 1.2202759c0.78134155 0.78134155 1.2202759 1.8410645 1.2202759 2.946045l0 0c0 2.3009949 -1.8653259 4.166321 -4.166321 4.166321l0 0c-2.3009949 0 -4.166321 -1.8653259 -4.166321 -4.166321z" fill-rule="nonzero"></path><path stroke="#666666" stroke-width="2.0" stroke-linejoin="round" stroke-linecap="butt" d="m292.63687 315.67557l0 0c0 -2.3009949 1.8653259 -4.166321 4.166321 -4.166321l0 0c1.1049805 0 2.1647034 0.43893433 2.946045 1.2202759c0.78134155 0.78134155 1.2202759 1.8410645 1.2202759 2.946045l0 0c0 2.3009949 -1.8653259 4.166321 -4.166321 4.166321l0 0c-2.3009949 0 -4.166321 -1.8653259 -4.166321 -4.166321z" fill-rule="nonzero"></path><path fill="#666666" d="m314.94128 315.67804l0 0c0 -2.3009949 1.8653259 -4.166321 4.166321 -4.166321l0 0c1.1049805 0 2.1647034 0.43893433 2.946045 1.2202759c0.78131104 0.78134155 1.2202759 1.8410645 1.2202759 2.946045l0 0c0 2.3009949 -1.8653259 4.166321 -4.166321 4.166321l0 0c-2.3009949 0 -4.166321 -1.8653259 -4.166321 -4.166321z" fill-rule="nonzero"></path><path stroke="#666666" stroke-width="2.0" stroke-linejoin="round" stroke-linecap="butt" d="m314.94128 315.67804l0 0c0 -2.3009949 1.8653259 -4.166321 4.166321 -4.166321l0 0c1.1049805 0 2.1647034 0.43893433 2.946045 1.2202759c0.78131104 0.78134155 1.2202759 1.8410645 1.2202759 2.946045l0 0c0 2.3009949 -1.8653259 4.166321 -4.166321 4.166321l0 0c-2.3009949 0 -4.166321 -1.8653259 -4.166321 -4.166321z" fill-rule="nonzero"></path><path fill="#666666" d="m314.94128 249.62971l0 0c0 -2.3009949 1.8653259 -4.166321 4.166321 -4.166321l0 0c1.1049805 0 2.1647034 0.43894958 2.946045 1.2202911c0.78131104 0.7813263 1.2202759 1.8410492 1.2202759 2.9460297l0 0c0 2.3009949 -1.8653259 4.166321 -4.166321 4.166321l0 0c-2.3009949 0 -4.166321 -1.8653259 -4.166321 -4.166321z" fill-rule="nonzero"></path><path stroke="#666666" stroke-width="2.0" stroke-linejoin="round" stroke-linecap="butt" d="m314.94128 249.62971l0 0c0 -2.3009949 1.8653259 -4.166321 4.166321 -4.166321l0 0c1.1049805 0 2.1647034 0.43894958 2.946045 1.2202911c0.78131104 0.7813263 1.2202759 1.8410492 1.2202759 2.9460297l0 0c0 2.3009949 -1.8653259 4.166321 -4.166321 4.166321l0 0c-2.3009949 0 -4.166321 -1.8653259 -4.166321 -4.166321z" fill-rule="nonzero"></path><path fill="#666666" d="m292.63687 249.62724l0 0c0 -2.3009949 1.8653259 -4.166321 4.166321 -4.166321l0 0c1.1049805 0 2.1647034 0.43894958 2.946045 1.2202911c0.78134155 0.7813263 1.2202759 1.8410492 1.2202759 2.9460297l0 0c0 2.3009949 -1.8653259 4.166321 -4.166321 4.166321l0 0c-2.3009949 0 -4.166321 -1.8653259 -4.166321 -4.166321z" fill-rule="nonzero"></path><path stroke="#666666" stroke-width="2.0" stroke-linejoin="round" stroke-linecap="butt" d="m292.63687 249.62724l0 0c0 -2.3009949 1.8653259 -4.166321 4.166321 -4.166321l0 0c1.1049805 0 2.1647034 0.43894958 2.946045 1.2202911c0.78134155 0.7813263 1.2202759 1.8410492 1.2202759 2.9460297l0 0c0 2.3009949 -1.8653259 4.166321 -4.166321 4.166321l0 0c-2.3009949 0 -4.166321 -1.8653259 -4.166321 -4.166321z" fill-rule="nonzero"></path><path fill="#666666" d="m338.1143 249.62971l0 0c0 -2.3009949 1.8653259 -4.166321 4.166321 -4.166321l0 0c1.1049805 0 2.1647034 0.43894958 2.946045 1.2202911c0.78134155 0.7813263 1.2202759 1.8410492 1.2202759 2.9460297l0 0c0 2.3009949 -1.8653259 4.166321 -4.166321 4.166321l0 0c-2.3009949 0 -4.166321 -1.8653259 -4.166321 -4.166321z" fill-rule="nonzero"></path><path stroke="#666666" stroke-width="2.0" stroke-linejoin="round" stroke-linecap="butt" d="m338.1143 249.62971l0 0c0 -2.3009949 1.8653259 -4.166321 4.166321 -4.166321l0 0c1.1049805 0 2.1647034 0.43894958 2.946045 1.2202911c0.78134155 0.7813263 1.2202759 1.8410492 1.2202759 2.9460297l0 0c0 2.3009949 -1.8653259 4.166321 -4.166321 4.166321l0 0c-2.3009949 0 -4.166321 -1.8653259 -4.166321 -4.166321z" fill-rule="nonzero"></path><path fill="#666666" d="m338.1143 271.06552l0 0c0 -2.3009949 1.8653259 -4.166321 4.166321 -4.166321l0 0c1.1049805 0 2.1647034 0.43893433 2.946045 1.2202759c0.78134155 0.78134155 1.2202759 1.8410645 1.2202759 2.946045l0 0c0 2.3009949 -1.8653259 4.166321 -4.166321 4.166321l0 0c-2.3009949 0 -4.166321 -1.8653259 -4.166321 -4.166321z" fill-rule="nonzero"></path><path stroke="#666666" stroke-width="2.0" stroke-linejoin="round" stroke-linecap="butt" d="m338.1143 271.06552l0 0c0 -2.3009949 1.8653259 -4.166321 4.166321 -4.166321l0 0c1.1049805 0 2.1647034 0.43893433 2.946045 1.2202759c0.78134155 0.78134155 1.2202759 1.8410645 1.2202759 2.946045l0 0c0 2.3009949 -1.8653259 4.166321 -4.166321 4.166321l0 0c-2.3009949 0 -4.166321 -1.8653259 -4.166321 -4.166321z" fill-rule="nonzero"></path><path fill="#666666" d="m338.11182 293.36993l0 0c0 -2.3009949 1.8653259 -4.166321 4.166321 -4.166321l0 0c1.1049805 0 2.1647034 0.43893433 2.946045 1.2202759c0.78134155 0.78134155 1.2202759 1.8410645 1.2202759 2.946045l0 0c0 2.3009949 -1.8653259 4.166321 -4.166321 4.166321l0 0c-2.3009949 0 -4.166321 -1.8653259 -4.166321 -4.166321z" fill-rule="nonzero"></path><path stroke="#666666" stroke-width="2.0" stroke-linejoin="round" stroke-linecap="butt" d="m338.11182 293.36993l0 0c0 -2.3009949 1.8653259 -4.166321 4.166321 -4.166321l0 0c1.1049805 0 2.1647034 0.43893433 2.946045 1.2202759c0.78134155 0.78134155 1.2202759 1.8410645 1.2202759 2.946045l0 0c0 2.3009949 -1.8653259 4.166321 -4.166321 4.166321l0 0c-2.3009949 0 -4.166321 -1.8653259 -4.166321 -4.166321z" fill-rule="nonzero"></path><path fill="#666666" d="m338.1143 316.54294l0 0c0 -2.3009949 1.8653259 -4.166321 4.166321 -4.166321l0 0c1.1049805 0 2.1647034 0.43893433 2.946045 1.2202759c0.78134155 0.78134155 1.2202759 1.8410645 1.2202759 2.946045l0 0c0 2.3009949 -1.8653259 4.166321 -4.166321 4.166321l0 0c-2.3009949 0 -4.166321 -1.8653259 -4.166321 -4.166321z" fill-rule="nonzero"></path><path stroke="#666666" stroke-width="2.0" stroke-linejoin="round" stroke-linecap="butt" d="m338.1143 316.54294l0 0c0 -2.3009949 1.8653259 -4.166321 4.166321 -4.166321l0 0c1.1049805 0 2.1647034 0.43893433 2.946045 1.2202759c0.78134155 0.78134155 1.2202759 1.8410645 1.2202759 2.946045l0 0c0 2.3009949 -1.8653259 4.166321 -4.166321 4.166321l0 0c-2.3009949 0 -4.166321 -1.8653259 -4.166321 -4.166321z" fill-rule="nonzero"></path><path fill="#666666" d="m271.20108 249.62971l0 0c0 -2.3009949 1.8653259 -4.166321 4.166321 -4.166321l0 0c1.1049805 0 2.1646729 0.43894958 2.9460144 1.2202911c0.78134155 0.7813263 1.2203064 1.8410492 1.2203064 2.9460297l0 0c0 2.3009949 -1.8653259 4.166321 -4.166321 4.166321l0 0c-2.3009949 0 -4.166321 -1.8653259 -4.166321 -4.166321z" fill-rule="nonzero"></path><path stroke="#666666" stroke-width="2.0" stroke-linejoin="round" stroke-linecap="butt" d="m271.20108 249.62971l0 0c0 -2.3009949 1.8653259 -4.166321 4.166321 -4.166321l0 0c1.1049805 0 2.1646729 0.43894958 2.9460144 1.2202911c0.78134155 0.7813263 1.2203064 1.8410492 1.2203064 2.9460297l0 0c0 2.3009949 -1.8653259 4.166321 -4.166321 4.166321l0 0c-2.3009949 0 -4.166321 -1.8653259 -4.166321 -4.166321z" fill-rule="nonzero"></path><path fill="#666666" d="m271.1986 271.06552l0 0c0 -2.3009949 1.8653259 -4.166321 4.166321 -4.166321l0 0c1.1049805 0 2.1646729 0.43893433 2.9460144 1.2202759c0.78134155 0.78134155 1.2203064 1.8410645 1.2203064 2.946045l0 0c0 2.3009949 -1.8653259 4.166321 -4.166321 4.166321l0 0c-2.3009949 0 -4.166321 -1.8653259 -4.166321 -4.166321z" fill-rule="nonzero"></path><path stroke="#666666" stroke-width="2.0" stroke-linejoin="round" stroke-linecap="butt" d="m271.1986 271.06552l0 0c0 -2.3009949 1.8653259 -4.166321 4.166321 -4.166321l0 0c1.1049805 0 2.1646729 0.43893433 2.9460144 1.2202759c0.78134155 0.78134155 1.2203064 1.8410645 1.2203064 2.946045l0 0c0 2.3009949 -1.8653259 4.166321 -4.166321 4.166321l0 0c-2.3009949 0 -4.166321 -1.8653259 -4.166321 -4.166321z" fill-rule="nonzero"></path><path fill="#666666" d="m271.1986 293.36993l0 0c0 -2.3009949 1.8653259 -4.166321 4.166321 -4.166321l0 0c1.1049805 0 2.1646729 0.43893433 2.9460144 1.2202759c0.78134155 0.78134155 1.2203064 1.8410645 1.2203064 2.946045l0 0c0 2.3009949 -1.8653259 4.166321 -4.166321 4.166321l0 0c-2.3009949 0 -4.166321 -1.8653259 -4.166321 -4.166321z" fill-rule="nonzero"></path><path stroke="#666666" stroke-width="2.0" stroke-linejoin="round" stroke-linecap="butt" d="m271.1986 293.36993l0 0c0 -2.3009949 1.8653259 -4.166321 4.166321 -4.166321l0 0c1.1049805 0 2.1646729 0.43893433 2.9460144 1.2202759c0.78134155 0.78134155 1.2203064 1.8410645 1.2203064 2.946045l0 0c0 2.3009949 -1.8653259 4.166321 -4.166321 4.166321l0 0c-2.3009949 0 -4.166321 -1.8653259 -4.166321 -4.166321z" fill-rule="nonzero"></path><path fill="#666666" d="m270.33124 316.54294l0 0c0 -2.3009949 1.8653259 -4.166321 4.166321 -4.166321l0 0c1.1049805 0 2.1647034 0.43893433 2.9460144 1.2202759c0.78134155 0.78134155 1.2203064 1.8410645 1.2203064 2.946045l0 0c0 2.3009949 -1.8653259 4.166321 -4.166321 4.166321l0 0c-2.3009949 0 -4.166321 -1.8653259 -4.166321 -4.166321z" fill-rule="nonzero"></path><path stroke="#666666" stroke-width="2.0" stroke-linejoin="round" stroke-linecap="butt" d="m270.33124 316.54294l0 0c0 -2.3009949 1.8653259 -4.166321 4.166321 -4.166321l0 0c1.1049805 0 2.1647034 0.43893433 2.9460144 1.2202759c0.78134155 0.78134155 1.2203064 1.8410645 1.2203064 2.946045l0 0c0 2.3009949 -1.8653259 4.166321 -4.166321 4.166321l0 0c-2.3009949 0 -4.166321 -1.8653259 -4.166321 -4.166321z" fill-rule="nonzero"></path><path fill="#000000" fill-opacity="0.0" d="m191.99179 263.86478l38.151306 0l0 56.800476l-38.151306 0z" fill-rule="nonzero"></path><path stroke="#6aa84f" stroke-width="4.0" stroke-linejoin="round" stroke-linecap="butt" d="m191.99179 263.86478l38.151306 0l0 56.800476l-38.151306 0z" fill-rule="nonzero"></path><path fill="#000000" fill-opacity="0.0" d="m204.50652 242.75285l45.401596 0l0 66.454605l-45.401596 0z" fill-rule="nonzero"></path><path stroke="#4a86e8" stroke-width="4.0" stroke-linejoin="round" stroke-linecap="butt" d="m204.50652 242.75285l45.401596 0l0 66.454605l-45.401596 0z" fill-rule="nonzero"></path><path fill="#cccccc" d="m43.674057 223.74277l39.716537 24.125015l0 68.285416l-39.716537 24.125z" fill-rule="nonzero"></path><path stroke="#000000" stroke-width="2.0" stroke-linejoin="round" stroke-linecap="butt" d="m43.674057 223.74277l39.716537 24.125015l0 68.285416l-39.716537 24.125z" fill-rule="nonzero"></path></g></svg>

