<?xml version="1.0" standalone="yes"?>

<svg version="1.1" viewBox="0.0 0.0 368.76640419947506 314.86614173228344" fill="none" stroke="none" stroke-linecap="square" stroke-miterlimit="10" xmlns="http://www.w3.org/2000/svg" xmlns:xlink="http://www.w3.org/1999/xlink"><clipPath id="p.0"><path d="m0 0l368.76642 0l0 314.86615l-368.76642 0l0 -314.86615z" clip-rule="nonzero"></path></clipPath><g clip-path="url(#p.0)"><path fill="#000000" fill-opacity="0.0" d="m0 0l368.76642 0l0 314.86615l-368.76642 0z" fill-rule="nonzero"></path><path fill="#000000" fill-opacity="0.0" d="m5.9396324 143.13649l0 0c0 -73.29298 60.649555 -132.70866 135.46457 -132.70866l0 0c35.92743 0 70.38338 13.981765 95.7879 38.869465c25.404541 24.887703 39.676666 58.64267 39.676666 93.8392l0 0c0 73.29297 -60.649567 132.70866 -135.46457 132.70866l0 0c-74.81502 0 -135.46457 -59.415695 -135.46457 -132.70866z" fill-rule="nonzero"></path><path stroke="#000000" stroke-width="4.0" stroke-linejoin="round" stroke-linecap="butt" stroke-dasharray="16.0,12.0" d="m5.9396324 143.13649l0 0c0 -73.29298 60.649555 -132.70866 135.46457 -132.70866l0 0c35.92743 0 70.38338 13.981765 95.7879 38.869465c25.404541 24.887703 39.676666 58.64267 39.676666 93.8392l0 0c0 73.29297 -60.649567 132.70866 -135.46457 132.70866l0 0c-74.81502 0 -135.46457 -59.415695 -135.46457 -132.70866z" fill-rule="nonzero"></path><path fill="#f4cccc" d="m124.20998 164.5958l0 0c0 -12.445969 10.089447 -22.53543 22.53543 -22.53543l0 0c5.976761 0 11.70874 2.3742676 15.934952 6.600479c4.2262115 4.2262115 6.600479 9.958191 6.600479 15.934952l0 0c0 12.445984 -10.089462 22.535446 -22.53543 22.535446l0 0c-12.445984 0 -22.53543 -10.089462 -22.53543 -22.535446z" fill-rule="nonzero"></path><path stroke="#000000" stroke-width="8.0" stroke-linejoin="round" stroke-linecap="butt" d="m124.20998 164.5958l0 0c0 -12.445969 10.089447 -22.53543 22.53543 -22.53543l0 0c5.976761 0 11.70874 2.3742676 15.934952 6.600479c4.2262115 4.2262115 6.600479 9.958191 6.600479 15.934952l0 0c0 12.445984 -10.089462 22.535446 -22.53543 22.535446l0 0c-12.445984 0 -22.53543 -10.089462 -22.53543 -22.535446z" fill-rule="nonzero"></path><path fill="#d9d9d9" d="m310.81497 164.59448l0 0c0 -12.445969 10.089447 -22.53543 22.53543 -22.53543l0 0c5.9767456 0 11.70874 2.3742676 15.934937 6.600479c4.226227 4.2262115 6.6004944 9.958191 6.6004944 15.934952l0 0c0 12.445984 -10.089478 22.535446 -22.53543 22.535446l0 0c-12.445984 0 -22.53543 -10.089462 -22.53543 -22.535446z" fill-rule="nonzero"></path><path stroke="#000000" stroke-width="4.0" stroke-linejoin="round" stroke-linecap="butt" d="m310.81497 164.59448l0 0c0 -12.445969 10.089447 -22.53543 22.53543 -22.53543l0 0c5.9767456 0 11.70874 2.3742676 15.934937 6.600479c4.226227 4.2262115 6.6004944 9.958191 6.6004944 15.934952l0 0c0 12.445984 -10.089478 22.535446 -22.53543 22.535446l0 0c-12.445984 0 -22.53543 -10.089462 -22.53543 -22.535446z" fill-rule="nonzero"></path><path fill="#fff2cc" d="m59.850395 102.38058l0 0c0 -12.445976 10.089455 -22.53543 22.53543 -22.53543l0 0c5.9767685 0 11.708748 2.37426 15.934959 6.6004715c4.2262115 4.226219 6.6004715 9.958191 6.6004715 15.934959l0 0c0 12.445976 -10.089455 22.53543 -22.53543 22.53543l0 0c-12.445976 0 -22.53543 -10.089455 -22.53543 -22.53543z" fill-rule="nonzero"></path><path stroke="#000000" stroke-width="4.0" stroke-linejoin="round" stroke-linecap="butt" d="m59.850395 102.38058l0 0c0 -12.445976 10.089455 -22.53543 22.53543 -22.53543l0 0c5.9767685 0 11.708748 2.37426 15.934959 6.6004715c4.2262115 4.226219 6.6004715 9.958191 6.6004715 15.934959l0 0c0 12.445976 -10.089455 22.53543 -22.53543 22.53543l0 0c-12.445976 0 -22.53543 -10.089455 -22.53543 -22.53543z" fill-rule="nonzero"></path><path fill="#d9d9d9" d="m69.03412 224.62335l0 0c0 -12.445969 10.089462 -22.53543 22.535439 -22.53543l0 0c5.9767685 0 11.70874 2.3742676 15.934952 6.600479c4.226219 4.2262115 6.600479 9.958191 6.600479 15.934952l0 0c0 12.445984 -10.089455 22.535446 -22.53543 22.535446l0 0c-12.445976 0 -22.535439 -10.089462 -22.535439 -22.535446z" fill-rule="nonzero"></path><path stroke="#000000" stroke-width="4.0" stroke-linejoin="round" stroke-linecap="butt" d="m69.03412 224.62335l0 0c0 -12.445969 10.089462 -22.53543 22.535439 -22.53543l0 0c5.9767685 0 11.70874 2.3742676 15.934952 6.600479c4.226219 4.2262115 6.600479 9.958191 6.600479 15.934952l0 0c0 12.445984 -10.089455 22.535446 -22.53543 22.535446l0 0c-12.445976 0 -22.535439 -10.089462 -22.535439 -22.535446z" fill-rule="nonzero"></path><path fill="#000000" fill-opacity="0.0" d="m130.81046 148.66084l-32.503944 -30.330711" fill-rule="nonzero"></path><path stroke="#000000" stroke-width="4.0" stroke-linejoin="round" stroke-linecap="butt" d="m130.81046 148.66084l-32.503944 -30.330711" fill-rule="nonzero"></path><path fill="#000000" fill-opacity="0.0" d="m169.28084 164.5958l141.54332 0" fill-rule="nonzero"></path><path stroke="#000000" stroke-width="4.0" stroke-linejoin="round" stroke-linecap="butt" d="m169.28084 164.5958l141.54332 0" fill-rule="nonzero"></path><path fill="#000000" fill-opacity="0.0" d="m130.81046 180.53076l-23.30709 28.15747" fill-rule="nonzero"></path><path stroke="#000000" stroke-width="4.0" stroke-linejoin="round" stroke-linecap="butt" d="m130.81046 180.53076l-23.30709 28.15747" fill-rule="nonzero"></path><path fill="#000000" fill-opacity="0.0" d="m146.7454 187.13124l0 0" fill-rule="nonzero"></path><path stroke="#000000" stroke-width="4.0" stroke-linejoin="round" stroke-linecap="butt" d="m146.7454 187.13124l0 0" fill-rule="nonzero"></path><path fill="#ffd966" d="m132.98953 160.08214l10.86351 7.6293945E-5l3.3569336 -10.177795l3.3569336 10.177795l10.86351 -7.6293945E-5l-8.788803 6.290146l3.357071 10.17775l-8.788712 -6.290268l-8.788712 6.290268l3.357071 -10.17775z" fill-rule="nonzero"></path><path stroke="#000000" stroke-width="2.0" stroke-linejoin="round" stroke-linecap="butt" d="m132.98953 160.08214l10.86351 7.6293945E-5l3.3569336 -10.177795l3.3569336 10.177795l10.86351 -7.6293945E-5l-8.788803 6.290146l3.357071 10.17775l-8.788712 -6.290268l-8.788712 6.290268l3.357071 -10.17775z" fill-rule="nonzero"></path><path fill="#c9daf8" d="m200.00262 82.17585l0 0c0 -12.445976 10.089462 -22.53543 22.53543 -22.53543l0 0c5.976776 0 11.70874 2.3742638 15.934967 6.600479c4.2262115 4.2262115 6.600464 9.958183 6.600464 15.934952l0 0c0 12.445976 -10.089447 22.535439 -22.53543 22.535439l0 0c-12.445969 0 -22.53543 -10.089462 -22.53543 -22.535439z" fill-rule="nonzero"></path><path stroke="#000000" stroke-width="4.0" stroke-linejoin="round" stroke-linecap="butt" d="m200.00262 82.17585l0 0c0 -12.445976 10.089462 -22.53543 22.53543 -22.53543l0 0c5.976776 0 11.70874 2.3742638 15.934967 6.600479c4.2262115 4.2262115 6.600464 9.958183 6.600464 15.934952l0 0c0 12.445976 -10.089447 22.535439 -22.53543 22.535439l0 0c-12.445969 0 -22.53543 -10.089462 -22.53543 -22.535439z" fill-rule="nonzero"></path><path fill="#d9d9d9" d="m224.7979 284.66666l0 0c0 -12.445953 10.089462 -22.53543 22.53543 -22.53543l0 0c5.976776 0 11.7087555 2.3742676 15.934952 6.6004944c4.226227 4.2261963 6.6004944 9.958191 6.6004944 15.934937l0 0c0 12.445984 -10.089478 22.53543 -22.535446 22.53543l0 0c-12.445969 0 -22.53543 -10.089447 -22.53543 -22.53543z" fill-rule="nonzero"></path><path stroke="#000000" stroke-width="4.0" stroke-linejoin="round" stroke-linecap="butt" d="m224.7979 284.66666l0 0c0 -12.445953 10.089462 -22.53543 22.53543 -22.53543l0 0c5.976776 0 11.7087555 2.3742676 15.934952 6.6004944c4.226227 4.2261963 6.6004944 9.958191 6.6004944 15.934937l0 0c0 12.445984 -10.089478 22.53543 -22.535446 22.53543l0 0c-12.445969 0 -22.53543 -10.089447 -22.53543 -22.53543z" fill-rule="nonzero"></path><path fill="#000000" fill-opacity="0.0" d="m162.68036 148.66084l43.93701 -50.551178" fill-rule="nonzero"></path><path stroke="#000000" stroke-width="4.0" stroke-linejoin="round" stroke-linecap="butt" d="m162.68036 148.66084l43.93701 -50.551178" fill-rule="nonzero"></path><path fill="#000000" fill-opacity="0.0" d="m162.68036 180.53076l68.72441 88.188965" fill-rule="nonzero"></path><path stroke="#000000" stroke-width="4.0" stroke-linejoin="round" stroke-linecap="butt" d="m162.68036 180.53076l68.72441 88.188965" fill-rule="nonzero"></path></g></svg>

